<svg xmlns="http://www.w3.org/2000/svg" height="48" viewBox="0 -960 960 960" width="48"><path d="M248.483-250.5Q303-287 358-308.5 413-330 480-330t121.75 21.5q54.75 21.5 110.75 58 42.5-44.5 68-102.498Q806-410.996 806-479.725q0-135.775-95.25-231.025T480-806q-135.5 0-230.75 95.25T154-479.725q0 68.729 25.5 126.727Q205-295 248.483-250.5ZM479.789-469q-48.289 0-80.539-32.461T367-582.211q0-48.289 32.461-80.539t80.75-32.25q48.289 0 80.539 32.461t32.25 80.75q0 48.289-32.461 80.539T479.789-469Zm.429 337q-72.625 0-136.246-27.263-63.621-27.263-110.547-74.5Q186.5-281 159.25-344.06 132-407.119 132-480.016q0-72.391 27.263-135.799 27.263-63.409 74.5-110.547Q281-773.5 344.06-800.75 407.119-828 480.016-828q72.391 0 135.799 27.263 63.409 27.263 110.547 74.5Q773.5-679 800.75-615.674 828-552.349 828-480.218q0 72.625-27.263 136.246-27.263 63.621-74.5 110.547Q679-186.5 615.674-159.25 552.349-132 480.218-132Zm-.278-22q57.06 0 113.81-20.5T694-234q-43.5-34-97.7-54-54.199-20-116.21-20-62.011 0-117.3 19-55.29 19-95.79 55 42.5 39 99.19 59.5T479.94-154Zm.2-337q39.36 0 65.11-25.89Q571-542.779 571-582.14q0-39.36-25.89-65.11Q519.221-673 479.86-673q-39.36 0-65.11 25.89Q389-621.221 389-581.86q0 39.36 25.89 65.11Q440.779-491 480.14-491Zm-.14-91Zm0 351Z"/></svg>