<svg xmlns="http://www.w3.org/2000/svg" height="48" viewBox="0 -960 960 960" width="48">
    <path fill="#76FF03" d="M480-480Zm-.018 364q-76.09 0-141.967-28.911-65.877-28.912-115-78.188-49.123-49.277-78.069-114.992Q116-403.806 116-479.592q0-75.68 29.083-142.116 29.084-66.435 78.316-116.043 49.233-49.608 115.05-77.928Q404.266-844 480-844q37.735 0 73.558 7.53Q589.381-828.939 623-815v38q-33-16-68.263-24-35.263-8-74.18-8-137.478 0-233.518 96.186Q151-616.628 151-479.8q0 136.829 95.981 232.814Q342.962-151 480.358-151 617-151 713-246.877 809-342.753 809-480q0-26.217-3.312-52.154Q802.375-558.091 793-583h37q7 25.417 10.5 50.567Q844-507.282 844-480q0 75.472-28.391 141.794-28.392 66.322-77.835 115.181-49.443 48.858-115.945 77.942Q555.327-116 479.982-116ZM823-690v-93h-93v-35h93v-93h35v93h93v35h-93v93h-35ZM616.176-540q17.324 0 30.074-12.927Q659-565.853 659-583.176q0-17.324-12.927-30.074Q633.147-626 615.824-626q-17.324 0-30.074 12.927Q573-600.147 573-582.824q0 17.324 12.927 30.074Q598.853-540 616.176-540Zm-272 0q17.324 0 30.074-12.927Q387-565.853 387-583.176q0-17.324-12.926-30.074Q361.147-626 343.824-626q-17.324 0-30.074 12.927Q301-600.147 301-582.824q0 17.324 12.926 30.074Q326.853-540 344.176-540ZM480-282q60.061 0 107.531-31.5Q635-345 659-397H301q24 52 71.469 83.5Q419.939-282 480-282Z"/>
</svg>