<svg xmlns="http://www.w3.org/2000/svg" height="48" viewBox="0 -960 960 960" width="48">
    <path fill="white" d="M480.273-132q-74.172 0-137.521-26.658-63.349-26.658-110.393-73.701-47.043-47.044-73.701-110.414Q132-406.143 132-480.072 132-554 158.658-617.17q26.658-63.171 73.701-110.295 47.044-47.125 110.414-73.83Q406.143-828 480.072-828 554-828 617.17-801.287q63.171 26.712 110.295 73.849 47.125 47.138 73.83 110.461T828-479.857v31.688q0 48.216-32.593 80.193Q762.814-336 715.373-336q-41.688 0-67.781-21Q621.5-378 610-415q-20.905 35-49.453 57Q532-336 480-336q-60 0-102-42t-42-102q0-61 42-102.5T480-624q60 0 102 41.5T624-480v32q0 37 26.5 63.5T715-358q38 0 64.5-26.5T806-448v-32q0-134-96-230t-230-96q-134 0-230 96t-96 230q0 134 96 230t230 96h204v22H480.273ZM480-358q51 0 86.5-35.5T602-480q0-51-35.5-86.5T480-602q-51 0-86.5 35.5T358-480q0 51 35.5 86.5T480-358Z"/>
</svg>