<svg xmlns="http://www.w3.org/2000/svg" height="48" viewBox="0 -960 960 960" width="48"><path d="M122.5-232v-47q0-26.262 13.232-43.57t38.497-28.462Q226-374.5 271.75-388.5q45.75-14 118.75-14t118.174 14q45.173 14 98.54 37.413 24.239 11.37 37.513 28.628Q658-305.202 658-279v47H122.5Zm610 0v-44q0-37.5-13.957-65.836Q704.585-370.173 684-389.5q28 8 54.971 17.395 26.971 9.395 50.569 19.629Q810-340.5 824.25-320.84q14.25 19.661 14.25 44.716V-232h-106Zm-342-280q-45.525 0-75.512-29.988Q285-571.975 285-617.5q0-45.525 29.988-75.012Q344.975-722 390.5-722q45.525 0 75.012 29.488Q495-663.025 495-617.5q0 45.525-29.488 75.512Q436.025-512 390.5-512ZM636-617.628q0 45.203-29.488 75.165-29.487 29.963-75.369 29.963-.643 0 1.113.156 1.755.156 1.744.29 17.839-20.527 26.42-47.185 8.58-26.658 8.58-57.912 0-30.903-10-56.339-10-25.437-25-49.51-1 .688-1.5.844-.5.156-1.5.156 46.025 0 75.512 29.687Q636-662.625 636-617.628ZM144.5-254H636v-24.744q0-16.446-8.75-28.601Q618.5-319.5 597.5-332.5q-49.06-25.5-94.554-36.75-45.495-11.25-111.976-11.25-66.649 0-112.56 11.25Q232.5-358 184-332.5q-22 13-30.75 25.345Q144.5-294.81 144.5-279v25Zm245.438-280q35.562 0 59.312-23.688t23.75-59.25q0-35.562-23.688-59.312T390.062-700q-35.562 0-59.312 23.688T307-617.062q0 35.562 23.688 59.312t59.25 23.75ZM390-254Zm0-363Z"/></svg>