<svg xmlns="http://www.w3.org/2000/svg" height="48" viewBox="0 -960 960 960" width="48">
    <path fill="#1A237E" d="M226-159q-27.5 0-47.25-19.75T159-226v-508q0-27.5 19.75-47.25T226-801h508q27.5 0 47.25 19.75T801-734v508q0 27.5-19.75 47.25T734-159H226Zm82-138h353L551-443 447-314l-66-77-73 94Zm32.059-286q16.358 0 27.149-10.35Q378-603.701 378-620.059q0-16.358-10.85-27.149Q356.299-658 339.941-658q-16.358 0-26.649 10.85Q303-636.299 303-619.941q0 16.358 10.35 26.649Q323.701-583 340.059-583Z"/>
</svg>