<svg xmlns="http://www.w3.org/2000/svg" height="48" viewBox="0 -960 960 960" width="48">
    <path fill="white" d="M470-306h22v-214h-22v214Zm9.93-262q8.07 0 13.07-4.632 5-4.633 5-13.263 0-9.055-4.915-13.58Q488.171-604 480.123-604q-9.623 0-13.873 4.42-4.25 4.419-4.25 13.225 0 8.955 4.93 13.655 4.93 4.7 13 4.7Zm.638 436q-72.942 0-135.932-27.523-62.989-27.523-110.386-74.848-47.398-47.325-74.824-110.103Q132-407.252 132-480.198q0-72.027 27.523-135.591 27.523-63.564 74.848-110.711 47.325-47.148 110.103-74.324Q407.252-828 480.198-828q72.027 0 135.597 27.391 63.569 27.392 110.711 74.348 47.142 46.957 74.318 110.394Q828-552.43 828-480.568q0 72.942-27.273 135.932-27.273 62.989-74.348 110.202-47.075 47.214-110.512 74.824T480.568-132Zm-.134-22q135.066 0 230.316-95.184T806-480.434q0-135.066-94.996-230.316Q616.007-806 480.066-806 344.5-806 249.25-711.004 154-616.007 154-480.066q0 135.566 95.184 230.816T480.434-154ZM480-480Z"/>
</svg>