<svg xmlns="http://www.w3.org/2000/svg" height="48" viewBox="0 -960 960 960" width="48">
    <path fill="white" d="M480.235-509.5q20.765 0 36.015-14.984 15.25-14.985 15.25-35.75 0-20.766-15.193-36.016-15.192-15.25-36.249-15.25-21.058 0-35.808 15.193-14.75 15.192-14.75 36.25 0 21.057 14.985 35.807 14.984 14.75 35.75 14.75Zm-.235 378q128.271-110.571 200.385-226.438Q752.5-473.805 752.5-551.701q0-123.089-78.005-201.944Q596.49-832.5 480.037-832.5q-116.454 0-193.995 78.887Q208.5-674.726 208.5-551.528q0 77.967 72.115 193.712Q352.729-242.071 480-131.5Zm0 31q-148.5-133-221-247.701-72.5-114.702-72.5-203.899 0-138.086 88.892-220.243 88.892-82.157 204.75-82.157t205.108 82.145q89.25 82.144 89.25 220.388 0 88.967-73 203.717Q628.5-233.5 480-100.5Zm0-451.5Z"/>
</svg>