<svg xmlns="http://www.w3.org/2000/svg" height="40" viewBox="0 -960 960 960" width="40">
    <path fill="white" d="M187.5-214.333V-237.5H268v-311.833q0-78.32 50.25-137.993Q368.5-747 447-760.274v-27.884q0-15.023 8.858-23.766 8.858-8.743 24.083-8.743 15.226 0 24.142 8.681Q513-803.306 513-788v27.737q78.389 13.17 129.111 72.782 50.722 59.611 50.722 138.148V-237.5h80.5v23.167H187.5Zm292.5-272.5Zm-.167 385.666q-23.666 0-41.583-17.083-17.917-17.083-17.917-42.583h119.334q0 25.5-17.084 42.583-17.083 17.083-42.75 17.083ZM291.167-237.5h378.5v-311.738q0-78.595-55.098-133.762T480-738.167q-79.127 0-133.98 55.27-54.853 55.27-54.853 133.564V-237.5Z"/>
</svg>