<svg xmlns="http://www.w3.org/2000/svg" height="48" viewBox="0 -960 960 960" width="48">
    <path fill="#1A237E" d="M616.176-540q17.324 0 30.074-12.927Q659-565.853 659-583.176q0-17.324-12.927-30.074Q633.147-626 615.824-626q-17.324 0-30.074 12.927Q573-600.147 573-582.824q0 17.324 12.927 30.074Q598.853-540 616.176-540Zm-272 0q17.324 0 30.074-12.927Q387-565.853 387-583.176q0-17.324-12.926-30.074Q361.147-626 343.824-626q-17.324 0-30.074 12.927Q301-600.147 301-582.824q0 17.324 12.926 30.074Q326.853-540 344.176-540Zm136.318 122q-57.744 0-106.619 31.5T301-302h37q22.319-37.925 60.521-60.462Q436.723-385 480.173-385t81.479 22.538Q599.681-339.925 623-302h36q-24-53-72.381-84.5Q538.237-418 480.494-418Zm-.32 302q-74.814 0-141.626-28.622-66.812-28.622-116.234-77.688t-77.868-115.884Q116-405.012 116-479.826q0-74.814 28.622-141.626 28.622-66.811 77.688-116.234 49.066-49.422 115.884-77.868Q405.012-844 479.826-844q74.814 0 141.626 28.622 66.811 28.622 116.234 77.688 49.422 49.066 77.868 115.884Q844-554.988 844-480.174q0 74.814-28.622 141.626-28.622 66.812-77.688 116.234t-115.884 77.868Q554.988-116 480.174-116ZM480-480Zm.084 329q137.291 0 233.104-95.896Q809-342.792 809-480.084q0-137.291-95.896-233.104Q617.208-809 479.916-809q-137.291 0-233.104 95.896Q151-617.208 151-479.916q0 137.291 95.896 233.104Q342.792-151 480.084-151Z"/>
</svg>