<svg xmlns="http://www.w3.org/2000/svg" height="40" viewBox="0 -960 960 960" width="40"><path d="m404.334-110.667-16-116.333q-18.334-5.667-43.133-18.97-24.799-13.303-40.868-28.697l-108 47L121-364.333l91.334-69.777q-1-10.482-2.5-23.09-1.5-12.607-1.5-24.133 0-9.774 1.5-21.517t2.5-26.483l-91.334-69L196.333-731l104.334 44.667q19-15.333 42.666-28.833 23.667-13.5 44.334-20.5l16.667-115h151.999l15 116.333q23.667 9 44.167 20.833 20.5 11.834 39.833 27.5L765-731l74.666 132.667-97.333 72.666q3 13 4.167 24.667 1.166 11.667 1.166 21 0 8.333-1.666 20-1.667 11.667-2.667 26.333l94 69.334L762-227.667l-109.667-48q-19.666 16.667-39.833 29-20.167 12.333-40.167 18.333l-16 117.667H404.334Zm71.333-266q44.066 0 74.366-30.272 30.3-30.273 30.3-74.3t-30.3-74.394Q519.733-586 475.667-586q-43.334 0-74 30.273Q371-525.455 371-481.428q0 44.028 30.667 74.394 30.666 30.367 74 30.367ZM475.216-418q-26.216 0-44.549-18.59-18.334-18.59-18.334-44.861 0-26.271 18.51-44.743 18.51-18.473 44.667-18.473 26.823 0 45.157 18.59Q539-507.487 539-481.216q0 26.272-18.451 44.744T475.216-418Zm4.451-63ZM439-152h80.425L534.5-263.333q30.833-8 55.747-22.085 24.913-14.085 52.874-39.915L743-282l40.333-68.667-88-66.666q4.334-18.425 6.667-33.72 2.333-15.295 2.333-30.288 0-16.659-2.166-29.992-2.167-13.334-5.834-32l89-67.334-39-68.666-104 42.333q-17.666-20-49.846-39.462-32.18-19.461-59.422-23.538l-11.398-109.333H438l-10.667 108q-34 7-60.666 22.166Q340-664 314-637.667l-99.478-41.666-41.189 68.666L260.667-545q-5 15.667-7 31.667t-2 32.464q0 14.536 2 30.202 2 15.667 6 33.667l-86.334 66.333 41 68.667L314-324.333q26.667 26.666 53.167 40.833 26.5 14.167 59.166 22.167L439-152Z"/></svg>