<svg xmlns="http://www.w3.org/2000/svg" height="48" viewBox="0 -960 960 960" width="48">
    <path fill="gray" d="M480.353-355Q540-355 582.5-397.853q42.5-42.853 42.5-102.5T582.147-602.5q-42.853-42.5-102.5-42.5T377.5-602.147q-42.5 42.853-42.5 102.5T377.853-397.5q42.853 42.5 102.5 42.5Zm-.882-35Q434-390 402-422.529q-32-32.53-32-78Q370-546 402.529-578q32.53-32 78-32Q526-610 558-577.471q32 32.53 32 78Q590-454 557.471-422q-32.53 32-78 32Zm.672 153Q350-237 241.5-308.5T78-500q55-120 163.357-191.5t238.5-71.5Q610-763 718.5-691.5T882-500q-55 120-163.357 191.5t-238.5 71.5ZM480-500Zm-.169 228Q598-272 694.872-333.082 791.745-394.164 844-500q-52.255-105.836-148.959-166.918Q598.337-728 480.169-728 362-728 264.628-666.918 167.255-605.836 116-500q51.255 105.836 148.459 166.918Q361.663-272 479.831-272Z"/>
</svg>
